<?xml version="1.0" encoding="UTF-8"?>
<svg width="256px" height="256px" viewBox="0 0 256 256" version="1.1" xmlns="http://www.w3.org/2000/svg" xmlns:xlink="http://www.w3.org/1999/xlink">
    <title>Group 2</title>
    <g id="Page-1" stroke="none" stroke-width="1" fill="none" fill-rule="evenodd">
        <g id="Group-2">
            <path d="M64,0 L192,0 C227.346224,0 256,28.653776 256,64 L256,192 C256,227.346224 227.346224,256 192,256 L64,256 C28.653776,256 0,227.346224 0,192 L0,64 C0,28.653776 28.653776,0 64,0 Z" id="Mask" fill="#74C731"></path>
            <g id="Group" transform="translate(25.000000, 44.000000)">
                <path d="M117.724333,7.56059431 C119.22503,8.69480758 120.225391,10.3692854 120.516397,12.2280946 L120.53366,12.3445069 L137.1,130.5627 C136.577279,132.987194 136.063321,134.165362 135.558126,134.097205 L85.5191044,15.7822225 C84.7697445,14.0111831 83.3495461,12.611296 81.5710007,11.8905837 C79.7924553,11.1698713 77.8012853,11.1873842 76.0356152,11.9392688 L65.1,16.5949883 C66.0024166,14.2555521 68.0905532,12.4548549 70.7273738,12.0407818 L70.8407145,12.0238872 L112.364998,6.17070396 C114.26453,5.90278498 116.192372,6.4027516 117.724333,7.56059431 Z" id="Shape" fill="#FFFFFF" opacity="0.6"></path>
                <path d="M134.892313,125.236018 L41.7561161,32.1063331 C40.4076001,30.757683 38.5784828,30 36.6712316,30 C34.7639804,30 32.9348631,30.757683 31.5863471,32.1063331 L2.10528207,61.5853369 C-0.70176069,64.3930312 -0.70176069,68.9443039 2.10528207,71.7519982 L95.2342887,164.893667 C96.5828047,166.242317 98.4119221,167 100.319173,167 C102.226424,167 104.055542,166.242317 105.404058,164.893667 L134.885123,135.414663 C136.237756,134.066809 137,132.2363 137,130.326832 C137,128.417364 136.243041,126.585782 134.892313,125.236018 L134.892313,125.236018 Z M110.825698,141.506991 C106.613584,145.718758 99.7844457,145.71873 95.5723669,141.506928 C91.3602882,137.295127 91.3602882,130.466466 95.5723669,126.254664 C99.7844457,122.042863 106.613584,122.042835 110.825698,126.254602 C112.848448,128.277186 113.984819,131.020413 113.984819,133.880796 C113.984819,136.741179 112.848448,139.484407 110.825698,141.506991 L110.825698,141.506991 Z M100.91239,131.591979 C99.9868461,132.517276 99.7098941,133.908972 100.210686,135.118074 C100.711477,136.327176 101.891381,137.11555 103.200168,137.11555 C104.508956,137.11555 105.688859,136.327176 106.189651,135.118074 C106.690443,133.908972 106.413491,132.517276 105.487947,131.591979 C104.224369,130.328739 102.175968,130.328739 100.91239,131.591979 L100.91239,131.591979 Z" id="Shape" fill="#333333"></path>
                <path d="M134.892313,125.236018 L41.7561161,32.1063331 C40.4076001,30.757683 38.5784828,30 36.6712316,30 C34.7639804,30 32.9348631,30.757683 31.5863471,32.1063331 L2.10528207,61.5853369 C-0.70176069,64.3930312 -0.70176069,68.9443039 2.10528207,71.7519982 L95.2342887,164.893667 C96.5828047,166.242317 98.4119221,167 100.319173,167 C102.226424,167 104.055542,166.242317 105.404058,164.893667 L134.885123,135.414663 C136.237756,134.066809 137,132.2363 137,130.326832 C137,128.417364 136.243041,126.585782 134.892313,125.236018 L134.892313,125.236018 Z M110.825698,141.506991 C106.613584,145.718758 99.7844457,145.71873 95.5723669,141.506928 C91.3602882,137.295127 91.3602882,130.466466 95.5723669,126.254664 C99.7844457,122.042863 106.613584,122.042835 110.825698,126.254602 C112.848448,128.277186 113.984819,131.020413 113.984819,133.880796 C113.984819,136.741179 112.848448,139.484407 110.825698,141.506991 L110.825698,141.506991 Z M100.91239,131.591979 C99.9868461,132.517276 99.7098941,133.908972 100.210686,135.118074 C100.711477,136.327176 101.891381,137.11555 103.200168,137.11555 C104.508956,137.11555 105.688859,136.327176 106.189651,135.118074 C106.690443,133.908972 106.413491,132.517276 105.487947,131.591979 C104.224369,130.328739 102.175968,130.328739 100.91239,131.591979 L100.91239,131.591979 Z" id="Shape" fill="#FFFFFF"></path>
                <path d="M76.4102104,11.7772275 C78.160694,11.0248448 80.1347379,11.0073204 81.897986,11.7285101 C83.6252494,12.4349818 85.0116007,13.7936213 85.7658191,15.5146908 L85.812132,15.6227269 L130.5,122.2 L41.6230321,32.2261459 C40.2784238,30.864714 38.4546069,30.0998502 36.5528825,30.0998502 C36.1983472,30.0998502 35.8465197,30.1264334 35.5,30.1785094 C36.1678966,29.3876974 37.0147191,28.7312162 38.0122841,28.2788742 L38.1432538,28.2210365 L76.4102104,11.7772275 Z" id="Shape" fill="#FFFFFF" opacity="0.8"></path>
                <path d="M95.2797306,7.97102075 C95.7611684,4.03441816 99.2946678,1.2237128 103.203609,1.64105381 L103.322174,1.65469075 L144.861171,6.78173126 C146.761419,7.01610924 148.491188,7.9997902 149.669871,9.51633116 C150.823998,11.0012775 151.35717,12.8779806 151.159696,14.7487706 L151.146098,14.8681708 L137.009983,130.6 L120.481486,12.3776481 C120.2152,10.4718366 119.2066,8.75044701 117.677614,7.5922431 C116.148627,6.43403918 114.224529,5.9339166 112.328685,6.20191916 L95.2,8.62172931 L95.2797306,7.97102075 Z" id="Shape" fill="#FFFFFF" opacity="0.45"></path>
                <path d="M130.77995,4.29082652 C132.372248,0.679900227 136.534697,-0.963948353 140.122024,0.578802249 L140.230552,0.626528915 L178.152214,17.6804529 C179.88703,18.4604472 181.243982,19.9046608 181.924495,21.6953181 C182.590214,23.4470481 182.555225,25.3899176 181.830175,27.1139201 L181.780816,27.2285248 L137.361746,128 L151.097313,15.0057941 C151.328893,13.1020572 150.802191,11.1833782 149.633098,9.67193133 C148.464006,8.16048444 146.748311,7.18010769 144.863524,6.94651699 L130.4,5.15249233 L130.77995,4.29082652 Z" id="Shape" fill="#FFFFFF" opacity="0.33"></path>
                <path d="M166.751117,6.71329289 L166.848023,6.78286641 L200.630803,31.4627821 C202.176313,32.591649 203.212477,34.2916735 203.511304,36.1887928 C203.803773,38.0455478 203.366494,39.9422063 202.294976,41.4788264 L202.224197,41.5785262 L136.6,132.4 L137.145654,128.149987 L181.829443,27.2359502 L181.879096,27.1211833 C182.608467,25.3947418 182.643664,23.4491238 181.973978,21.6949156 C181.303381,19.9383208 179.979804,18.5146437 178.285585,17.7230212 L178.179216,17.6743705 L156.950692,8.17076055 C159.305026,5.15074986 163.613476,4.49903807 166.751117,6.71329289 Z" id="Path" fill="#FFFFFF" opacity="0.17"></path>
            </g>
        </g>
    </g>
</svg>